<?xml version="1.0" standalone="no"?><svg xmlns="http://www.w3.org/2000/svg" viewBox="0 0 1440 320"><path fill="#74009e" fill-opacity="1" d="M0,160L14.1,186.7C28.2,213,56,267,85,245.3C112.9,224,141,128,169,122.7C197.6,117,226,203,254,240C282.4,277,311,267,339,250.7C367.1,235,395,213,424,181.3C451.8,149,480,107,508,117.3C536.5,128,565,192,593,234.7C621.2,277,649,299,678,277.3C705.9,256,734,192,762,149.3C790.6,107,819,85,847,85.3C875.3,85,904,107,932,149.3C960,192,988,256,1016,234.7C1044.7,213,1073,107,1101,101.3C1129.4,96,1158,192,1186,245.3C1214.1,299,1242,309,1271,304C1298.8,299,1327,277,1355,240C1383.5,203,1412,149,1426,122.7L1440,96L1440,320L1425.9,320C1411.8,320,1384,320,1355,320C1327.1,320,1299,320,1271,320C1242.4,320,1214,320,1186,320C1157.6,320,1129,320,1101,320C1072.9,320,1045,320,1016,320C988.2,320,960,320,932,320C903.5,320,875,320,847,320C818.8,320,791,320,762,320C734.1,320,706,320,678,320C649.4,320,621,320,593,320C564.7,320,536,320,508,320C480,320,452,320,424,320C395.3,320,367,320,339,320C310.6,320,282,320,254,320C225.9,320,198,320,169,320C141.2,320,113,320,85,320C56.5,320,28,320,14,320L0,320Z"></path></svg>